<svg xmlns="http://www.w3.org/2000/svg" width="30" height="30" viewBox="0 0 30 30" fill="none">
  <circle cx="15" cy="15" r="15" fill="#fcd436"/>
  <circle cx="15" cy="15" r="15" fill="#fcd436"/>
  <path d="M16.4834 7.09504C17.3679 7.30853 17.7948 8.3455 17.5966 9.22997C17.3831 10.1144 16.5596 10.8617 15.6752 10.6482C14.7907 10.4347 14.4552 9.41296 14.6534 8.52849C14.8669 7.64402 15.5989 6.88155 16.4834 7.09504ZM12.6863 13.6371C12.6863 13.6371 15.3549 11.3039 16.3919 11.7614C17.0934 11.9444 16.7121 15.101 16.6054 15.528C16.5749 15.9092 15.9649 20.7128 16.1174 20.9263C16.3309 21.7193 16.5749 21.0941 17.3221 20.4688C17.3221 20.4688 19.0758 19.2794 17.2001 21.7498C15.6447 23.412 14.135 23.1985 13.9062 21.948C13.7232 21.0026 14.4705 15.284 14.6534 14.0031C14.7144 13.5761 14.1807 14.0031 14.1807 14.0031C14.1807 14.0031 12.732 14.9028 12.3813 14.2928C12.2898 14.125 12.427 13.8658 12.6863 13.6371Z" fill="black"/>
  <defs>
    <linearGradient id="paint0_linear_2255_1993" x1="-1.67638e-07" y1="15" x2="30" y2="15" gradientUnits="userSpaceOnUse">
      <stop stop-color="#fcd436"/>
      <stop offset="0.484375" stop-color="#fcd436"/>
      <stop offset="1" stop-color="#fcd436"/>
    </linearGradient>
  </defs>
</svg>