<svg xmlns="http://www.w3.org/2000/svg" width="15" height="13" viewBox="0 0 15 13" fill="none">
  <path d="M7.73952 0.0867707L3.87122 2.57113H1.94141C0.869078 2.57113 0 3.42955 0 4.5048V8.37989C0 9.44835 0.858447 10.3136 1.94141 10.3136H3.87122L7.73952 12.796C8.28633 13.0331 8.71023 12.7795 8.71023 12.2414V0.641311C8.71023 0.102244 8.27569 -0.144542 7.73952 0.0867707ZM10.9991 3.20891C10.8171 3.0134 10.5104 3.00275 10.3158 3.18567C10.1203 3.36859 10.1106 3.67442 10.2926 3.86991C10.3826 3.96668 10.5365 4.18058 10.6952 4.50382C10.9662 5.05548 11.1298 5.70293 11.1298 6.44235C11.1298 7.18176 10.9662 7.83017 10.6952 8.38087C10.5365 8.70409 10.3826 8.91799 10.2926 9.01478C10.1097 9.21027 10.1203 9.5161 10.3158 9.69902C10.5113 9.88194 10.8172 9.87129 11.0001 9.67579C11.152 9.5132 11.3611 9.22286 11.5643 8.80767C11.8982 8.12826 12.0976 7.3366 12.0976 6.44138C12.0976 5.54617 11.8982 4.75449 11.5643 4.0751C11.3601 3.66183 11.151 3.37051 10.9991 3.20891ZM13.9664 2.60983C13.5754 1.94786 13.1805 1.48911 12.9037 1.24232C12.7043 1.06427 12.3985 1.08168 12.2204 1.28201C12.0424 1.48234 12.0598 1.7872 12.2601 1.96527C12.3056 2.0059 12.3966 2.09689 12.5185 2.23818C12.7276 2.48012 12.9366 2.76854 13.1331 3.10147C13.6954 4.05573 14.0332 5.17159 14.0332 6.44233C14.0332 7.71307 13.6954 8.82893 13.1321 9.78417C12.9357 10.1171 12.7256 10.4055 12.5176 10.6474C12.3956 10.7887 12.3046 10.8797 12.2592 10.9203C12.0598 11.0984 12.0424 11.4043 12.2195 11.6036C12.3966 11.803 12.7034 11.8204 12.9028 11.6433C13.1796 11.3965 13.5744 10.9387 13.9654 10.2758C14.6119 9.17929 15 7.89694 15 6.44233C15.001 4.98871 14.6129 3.70636 13.9664 2.60983Z" fill="url(#paint0_linear_2373_176)"/>
  <defs>
    <linearGradient id="paint0_linear_2373_176" x1="-4.37149e-08" y1="13" x2="13" y2="4.28168e-06" gradientUnits="userSpaceOnUse">
      <stop stop-color="#fcd436"/>
      <stop offset="0.484375" stop-color="#fcd436"/>
      <stop offset="1" stop-color="#fcd436"/>
    </linearGradient>
  </defs>
</svg>