<svg xmlns="http://www.w3.org/2000/svg" width="150" height="120" viewBox="0 0 150 120" fill="none">
  <path fill-rule="evenodd" clip-rule="evenodd" d="M120 0H150V30H120V0ZM90 60V30H120V60H90ZM60 90V60H90V90H60ZM30 90V120H60V90H30ZM30 90H0V60H30V90Z" fill="#D9D9D9"/>
  <path fill-rule="evenodd" clip-rule="evenodd" d="M120 0H150V30H120V0ZM90 60V30H120V60H90ZM60 90V60H90V90H60ZM30 90V120H60V90H30ZM30 90H0V60H30V90Z" fill="url(#paint0_linear_2456_3366)"/>
  <defs>
    <linearGradient id="paint0_linear_2456_3366" x1="-2.55071e-05" y1="120" x2="168.698" y2="60.6436" gradientUnits="userSpaceOnUse">
      <stop stop-color="#00FFF0"/>
      <stop offset="0.484375" stop-color="#68FF65"/>
      <stop offset="1" stop-color="#FAFF00"/>
    </linearGradient>
  </defs>
</svg>